{"title":"Jimi Hendrix - The Early Years (1994) [PRM-BR] FLAC","uid":8148524,"size":182563889,"categoryP":"audio","categoryS":"flac","magnet":"?xt=urn:btih:5d27b784f8f5f7f7aee1ed26e4dba4b881e67983&amp;dn=Jimi+Hendrix+-+The+Early+Years+%281994%29+%5BPRM-BR%5D+FLAC&amp;tr=udp%3A%2F%2Ftracker.openbittorrent.com%3A80&amp;tr=udp%3A%2F%2Fopen.demonii.com%3A1337&amp;tr=udp%3A%2F%2Ftracker.coppersurfer.tk%3A6969&amp;tr=udp%3A%2F%2Fexodus.desync.com%3A6969","seeders":1,"leechers":0,"uploader":"PRM-BR","files":10,"time":1360982647,"description":"Exact Audio Copy V1.0 beta 3 from 29. August 2011\n\nEAC extraction logfile from 15. February 2013, 23:37\n\nJimi Hendrix / The Early Years [BR Edition]\n\nUsed drive  : HL-DT-STDVDRAM GP08LU10   Adapter: 1  ID: 0\n\nRead mode : Burst\n\nRead offset correction                      : 667\nOverread into Lead-In and Lead-Out          : No\nFill up missing offset samples with silence : Yes\nDelete leading and trailing silent blocks   : No\nNull samples used in CRC calculations       : Yes\nUsed interface                              : Native Win32 interface for Win NT &amp; 2000\nGap handling                                : Not detected, thus appended to previous track\n\nUsed output format              : User Defined Encoder\nSelected bitrate                : 1024 kBit/s\nQuality                         : High\nAdd ID3 tag                     : No\nCommand line compressor         : D:Program FilesExact Audio CopyFLACFLAC.EXE\nAdditional command line options : -6 -V -T &quot;ARTIST=%artist%&quot; -T &quot;TITLE=%title%&quot; -T &quot;ALBUM=%albumtitle%&quot; -T &quot;DATE=%year%&quot; -T &quot;TRACKNUMBER=%tracknr%&quot; -T &quot;GENRE=%genre%&quot; -T &quot;COMMENT=%comment%&quot; -T &quot;BAND=%albuminterpret%&quot; -T &quot;ALBUMARTIST=%albuminterpret%&quot; -T &quot;COMPOSER=%composer%&quot; %haslyrics%--tag-from-file=LYRICS=&quot;%lyricsfile%&quot;%haslyrics% -T &quot;DISCNUMBER=%cdnumber%&quot; -T &quot;TOTALDISCS=%totalcds%&quot; -T &quot;TOTALTRACKS=%numtracks%&quot; %hascover%--picture=&quot;%coverfile%&quot;%hascover% %source% -o %dest%\n\n\nTOC of the extracted CD\n\n     Track |   Start  |  Length  | Start sector | End sector \n    ---------------------------------------------------------\n        1  |  0:00.00 |  2:52.45 |         0    |    12944   \n        2  |  2:52.45 |  2:06.72 |     12945    |    22466   \n        3  |  4:59.42 |  3:31.70 |     22467    |    38361   \n        4  |  8:31.37 |  4:31.30 |     38362    |    58716   \n        5  | 13:02.67 |  2:53.30 |     58717    |    71721   \n        6  | 15:56.22 |  2:27.73 |     71722    |    82819   \n        7  | 18:24.20 |  2:16.20 |     82820    |    93039   \n        8  | 20:40.40 |  2:51.42 |     93040    |   105906   \n        9  | 23:32.07 |  3:33.18 |    105907    |   121899   \n       10  | 27:05.25 |  2:46.00 |    121900    |   134349   \n\n\nTrack  1\n\n     Filename D:DesktopJimi Hendrix (1994) - The Early Years [BR Edition](01) Lonnie Youngblood Featuring Jimi Hendrix - Go-Go Shoes.wav\n\n     Peak level 64.5 %\n     Extraction speed 8.4 X\n     Copy CRC 0BCEE610\n     Cannot be verified as accurate (confidence 8)  [CA40707F], AccurateRip returned [C797F7C7]  (AR v2)\n     Copy OK\n\nTrack  2\n\n     Filename D:DesktopJimi Hendrix (1994) - The Early Years [BR Edition](02) Lonnie Youngblood Featuring Jimi Hendrix - Go-Go Place.wav\n\n     Peak level 89.5 %\n     Extraction speed 11.6 X\n     Copy CRC 898FD172\n     Cannot be verified as accurate (confidence 8)  [7A4A2E7D], AccurateRip returned [5FEF36AA]  (AR v2)\n     Copy OK\n\nTrack  3\n\n     Filename D:DesktopJimi Hendrix (1994) - The Early Years [BR Edition](03) Lonnie Youngblood Featuring Jimi Hendrix - Soul Food (That's What I Like).wav\n\n     Peak level 79.5 %\n     Extraction speed 12.5 X\n     Copy CRC 68827BD2\n     Cannot be verified as accurate (confidence 8)  [60AD817D], AccurateRip returned [EEAED3C7]  (AR v2)\n     Copy OK\n\nTrack  4\n\n     Filename D:DesktopJimi Hendrix (1994) - The Early Years [BR Edition](04) Lonnie Youngblood Featuring Jimi Hendrix - Under The Table 1.wav\n\n     Peak level 88.8 %\n     Extraction speed 13.7 X\n     Copy CRC 5B4A22A4\n     Cannot be verified as accurate (confidence 8)  [9718617C], AccurateRip returned [36A3BCDF]  (AR v2)\n     Copy OK\n\nTrack  5\n\n     Filename D:DesktopJimi Hendrix (1994) - The Early Years [BR Edition](05) Lonnie Youngblood Featuring Jimi Hendrix - Under The Table 2.wav\n\n     Peak level 75.4 %\n     Extraction speed 14.6 X\n     Copy CRC E74C7B50\n     Cannot be verified as accurate (confidence 8)  [A612A11E], AccurateRip returned [AA0E31B5]  (AR v2)\n     Copy OK\n\nTrack  6\n\n     Filename D:DesktopJimi Hendrix (1994) - The Early Years [BR Edition](06) Lonnie Youngblood Featuring Jimi Hendrix - Goodbye, Bessie May.wav\n\n     Peak level 89.2 %\n     Extraction speed 15.2 X\n     Copy CRC ED01C0ED\n     Cannot be verified as accurate (confidence 8)  [B1793BB1], AccurateRip returned [D362837F]  (AR v2)\n     Copy OK\n\nTrack  7\n\n     Filename D:DesktopJimi Hendrix (1994) - The Early Years [BR Edition](07) Lonnie Youngblood Featuring Jimi Hendrix - Two In One Goes.wav\n\n     Peak level 88.8 %\n     Extraction speed 15.8 X\n     Copy CRC 5A6A50A9\n     Cannot be verified as accurate (confidence 8)  [B540130E], AccurateRip returned [FB1E8336]  (AR v2)\n     Copy OK\n\nTrack  8\n\n     Filename D:DesktopJimi Hendrix (1994) - The Early Years [BR Edition](08) Lonnie Youngblood Featuring Jimi Hendrix - Wipe The Sweat 1.wav\n\n     Peak level 92.2 %\n     Extraction speed 16.4 X\n     Copy CRC A0D3792C\n     Cannot be verified as accurate (confidence 8)  [4748AB5C], AccurateRip returned [9903C29E]  (AR v2)\n     Copy OK\n\nTrack  9\n\n     Filename D:DesktopJimi Hendrix (1994) - The Early Years [BR Edition](09) Lonnie Youngblood Featuring Jimi Hendrix - Wipe The Sweat 2.wav\n\n     Peak level 89.6 %\n     Extraction speed 17.1 X\n     Copy CRC 276394DA\n     Cannot be verified as accurate (confidence 8)  [712FA249], AccurateRip returned [0FBED64C]  (AR v2)\n     Copy OK\n\nTrack 10\n\n     Filename D:DesktopJimi Hendrix (1994) - The Early Years [BR Edition](10) Lonnie Youngblood Featuring Jimi Hendrix - Wipe The Sweat 3.wav\n\n     Peak level 88.2 %\n     Extraction speed 17.7 X\n     Copy CRC F29D5921\n     Cannot be verified as accurate (confidence 8)  [B2A5C299], AccurateRip returned [CDDB6D9B]  (AR v2)\n     Copy OK\n\n\nNo tracks could be verified as accurate\nYou may have a different pressing from the one(s) in the database\n\nNo errors occurred\n\nEnd of status report\n\n---- CUETools DB Plugin V2.1.3\n\n[CTDB TOCID: skNYOWUcbPS6y3bY53OaVsHMpZM-] found, Submit result: insufficient quality\n[418ca82f] (3/3) Differs in 2064 samples @29:51:11-29:51:14\nYou can use CUETools to repair this rip.\n","torrent":{"xt":"urn:btih:5d27b784f8f5f7f7aee1ed26e4dba4b881e67983","amp;dn":"Jimi+Hendrix+-+The+Early+Years+%281994%29+%5BPRM-BR%5D+FLAC","amp;tr":["udp%3A%2F%2Ftracker.openbittorrent.com%3A80","udp%3A%2F%2Fopen.demonii.com%3A1337","udp%3A%2F%2Ftracker.coppersurfer.tk%3A6969","udp%3A%2F%2Fexodus.desync.com%3A6969"],"infoHash":"5d27b784f8f5f7f7aee1ed26e4dba4b881e67983","infoHashBuffer":{"type":"Buffer","data":[93,39,183,132,248,245,247,247,174,225,237,38,228,219,164,184,129,230,121,131]},"announce":[],"urlList":[]}}